<mxfile host="app.diagrams.net" modified="2023-12-09T18:21:02.622Z" agent="Mozilla/5.0 (Macintosh; Intel Mac OS X 10_15_7) AppleWebKit/537.36 (KHTML, like Gecko) Chrome/118.0.0.0 Safari/537.36" etag="1VHL-njIzm2oBZbefmOm" version="22.1.7" type="device">
  <diagram name="Page-1" id="xjApHk5PhpFXJ2PZkWuk">
    <mxGraphModel dx="1079" dy="1232" grid="1" gridSize="10" guides="1" tooltips="1" connect="1" arrows="1" fold="1" page="1" pageScale="1" pageWidth="850" pageHeight="1100" math="0" shadow="0">
      <root>
        <mxCell id="0" />
        <mxCell id="1" parent="0" />
        <mxCell id="2" value="ctf" style="whiteSpace=wrap;strokeWidth=2;" parent="1" vertex="1">
          <mxGeometry width="35" height="34" as="geometry" />
        </mxCell>
        <mxCell id="ehCooA8RwKVxVm2kvuUr-2" value="" style="rounded=1;whiteSpace=wrap;html=1;" vertex="1" parent="1">
          <mxGeometry x="-770" y="-370" width="120" height="90" as="geometry" />
        </mxCell>
      </root>
    </mxGraphModel>
  </diagram>
</mxfile>
